Work Done

I used the TVRip from VSR and muxed with a 320KB/s CBR MP3 that i already
had. Encode settings listed below.

I would have used a bit of deblocking, higher ME and ref frame count
but all the same, Thanks VSR.

File

Format : Matroska
File size : 50.1 MiB
Duration : 4mn 24s
Overall bit rate : 1 591 Kbps
Encoded date : UTC 2009-08-12 22:12:43
Writing application : mkvmerge v2.9.7 ('Tenderness')
Writing library : libebml v0.7.7 + libmatroska v0.8.1

Video

Format : AVC
Format/Info : Advanced Video Codec
Format profile : Main@L3.0
Format settings, CABAC : Yes
Format settings, ReFrames : 5 frames
Muxing mode : Container profile=Unknown@3.0
Codec ID : V_MPEG4/ISO/AVC
Duration : 4mn 24s
Bit rate : 1 239 Kbps
Width : 528 pixels
Height : 320 pixels
Display aspect ratio : 1.891
Frame rate : 23.976 fps
Resolution : 24 bits
Colorimetry : 4:2:0
Scan type : Progressive
Bits/(Pixel*Frame) : 0.306
Stream size : 39.0 MiB (78%)
Writing library : x264 core 65 r1046 71d34b4
Encoding settings : cabac=1 / ref=5 / deblock=1:0:0 /
analyse=0x1:0x111 / me=umh / subme=9 / psy_rd=1.0:1.0 / mixed_ref=1 /
me_range=24 / chroma_me=1 / trellis=2 / 8x8dct=0 / cqm=0 /
deadzone=21,11 / chroma_qp_offset=-4 / threads=3 / nr=0 / decimate=1 /
mbaff=0 / bframes=12 / b_pyramid=0 / b_adapt=1 / b_bias=0 / direct=1 /
wpredb=1 / keyint=250 / keyint_min=25 / scenecut=40(pre) / rc=crf /
crf=19.0 / qcomp=0.60 / qpmin=10 / qpmax=51 / qpstep=4 / ip_ratio=1.40 /
pb_ratio=1.30 / aq=1:1.00

Audio

Format : MPEG Audio
Format version : Version 1
Format profile : Layer 3
Codec ID : A_MPEG/L3
Codec ID/Hint : MP3
Duration : 4mn 24s
Bit rate mode : Constant
Bit rate : 320 Kbps
Channel(s) : 2 channels
Sampling rate : 44.1 KHz
Resolution : 16 bits
Stream size : 10.1 MiB (20%)
Writing library : LAME3.98.2

Thumbs
 
http://i18.photobucket.com/albums/b116/mattlb0619/mariah_obsessed_mv/remix/thumbs20090812174135.jpg